<svg xmlns="http://www.w3.org/2000/svg" xmlns:xlink="http://www.w3.org/1999/xlink" version="1.1" id="Layer_1" x="0px" y="0px" viewBox="0 0 714 714" style="enable-background:new 0 0 714 714;" xml:space="preserve">
<style type="text/css">
	.st0{fill:#FFFFFF;}
	.st1{fill:#DBAD77;}
	.st2{fill:#FECC89;}
	.st3{fill:#F494BE;}
	.st4{fill:#F8C0D8;}
	.st5{fill:#FFE8CF;}
	.st6{fill:none;stroke:#ED1C24;stroke-miterlimit:10;}
	.st7{fill:#E6E7E8;}
	.st8{fill:#D1D3D4;}
	.st9{fill:#A7A9AC;}
	.st10{fill:#414042;}
	.st11{fill:#CAEBF8;}
	.st12{fill:#C49A6C;}
	.st13{fill:#58595B;}
	.st14{fill:#FDF8C1;}
	.st15{fill:#808285;}
</style>
    <g>
	<path class="st0" d="M186.3829193,486.4810486c-1.1336365-1.9838257,0.2834015-40.5271606,3.6842804-54.6975098   c3.4008942-14.1703491,8.785614-38.8267212,8.785614-38.8267212s-14.7371521,8.785614-26.3568268,3.9676819   c-11.6196899-4.8179016-30.8913422-27.490448-55.2643356-35.709259   c-24.3729858-8.2187805-43.9280624,9.9192505-43.9280624,9.9192505l-11.0528641,96.3583069   c0,0,10.2026443-13.6035156,32.8751907-6.2349548c22.6725464,7.3685913,24.3729858,25.5066223,51.0132294,29.4743347   C172.7793884,494.6998596,186.3829193,486.4810486,186.3829193,486.4810486z"/>
        <g>
		<path class="st1" d="M174.9690094,394.6492615c-1.422821-0.7114258,24.6921997-91.4383545,84.4936371-135.0355225    s125.7759399-52.470932,184.8057556-38.5815735c59.0298157,13.8893738,98.3830261,55.5574646,97.2255554,56.7149048    c-1.1574097,1.1574707-341.4469299,114.973114-341.4469299,114.973114S183.456955,398.893219,174.9690094,394.6492615z"/>
            <path class="st2" d="M188.4170685,440.7390747c-0.8473206-1.2709961,8.4732361-106.3390198,85.5796356-167.346283    s156.7547302-54.2286835,210.983429-27.5380096s105.4917297,74.9880829,126.6747742,144.4685822    c21.1831055,69.4804688,8.8969116,97.0184631-6.7785645,99.1367798s-83.8850098-28.3853149-127.5221252-14.40448    s-123.2854919,70.3278198-160.5677185,81.3430176s-85.3011627,6.9902344-114.3885956-30.9273071    C178.6728516,494.5440979,188.4170685,440.7390747,188.4170685,440.7390747z"/>
            <ellipse cx="339.1346741" cy="443.4616699" rx="20.7278805" ry="22.094862"/>
            <ellipse cx="547.3285522" cy="410.1495361" rx="20.7278805" ry="22.094862"/>

            <ellipse transform="matrix(0.0283472 -0.9995981 0.9995981 0.0283472 83.1216812 990.4425659)" class="st3" cx="551.0250244" cy="452.4651184" rx="9.6242762" ry="20.8184204"/>

            <ellipse transform="matrix(0.9053218 -0.4247262 0.4247262 0.9053218 -177.2271881 196.4668427)" class="st3" cx="352.0615234" cy="495.7539978" rx="26.5398922" ry="12.0117435"/>
            <path class="st4" d="M126.0816269,455.0840759c0,0-36.0852585-40.1221313-14.0598145-55.5742493    c17.8624649-12.5315857,25.6709061,15.6844177,25.6709061,15.6844177s14.4075165-15.8573608,26.8712463-2.0065002    C177.6454163,427.7250977,160.9823151,450.0459595,126.0816269,455.0840759z"/>
            <g>
			<path d="M624.0102539,445.5373535c-0.6764526-20.175293-5.9736328-40.0695801-12.7139893-58.9938965     c-7.3901367-20.7487793-16.8251343-40.8623047-28.0776978-59.7971191     c-5.9081421-9.9416504-12.6429443-19.3022461-20.1489868-28.0133057     c-19.3555298-29.8988037-48.1730347-52.5753174-80.6951294-66.7255859     c-16.4598999-7.1617432-33.7421265-12.2912598-51.43927-15.2950439     c-10.9860229-1.8647461-22.0712891-2.9884033-33.12677-4.3406982c-8.2007446-1.0030518-16.4954224-2.0192871-24.739563-0.973999     c-12.9960327,1.6479492-25.9748535,4.293335-38.7315063,7.2536621     c-14.8284302,3.4411621-29.2971802,8.7105713-42.9074707,15.5214844     c-27.4988403,13.7612305-50.8795166,34.3414307-69.4216309,58.7525635     c-19.7457886,25.9957275-33.8685913,55.9385986-44.2319336,86.7840576     c-1.3411865,3.9919434-2.616272,8.0053711-3.8374634,12.0354004c-0.1186523,0.3916016-0.1451416,0.7532959-0.1193237,1.092041     c-1.8589478-0.4331055-3.6917114-1-5.4572144-1.7258301c-0.0446167-0.0183105-0.0630493-0.0255127-0.0858765-0.0345459     c-0.0496216-0.022583-0.0985107-0.0447998-0.1802368-0.081543c-0.180481-0.0811768-0.3608398-0.1625977-0.5401611-0.24646     c-0.4438477-0.2072754-0.8831177-0.4248047-1.3166504-0.6529541c-0.8466187-0.4454346-1.6726074-0.9310303-2.4693604-1.4605713     c-0.3109131-0.206665-0.6152954-0.4223633-0.9185791-0.6398926c-0.065979-0.0473633-0.1046143-0.074707-0.1448364-0.1030273     c-0.0127563-0.0102539-0.0151978-0.0126953-0.0325928-0.0263672c-0.1781006-0.1411133-0.3538208-0.2851562-0.5272217-0.4318848     c-0.9742432-0.8244629-1.8829956-1.729126-2.8076172-2.6080322     c-7.8048096-7.4188232-15.4967041-15.0894775-24.7071533-20.7947998     c-9.4228516-5.8369141-20.5777588-9.4460449-31.737915-8.9492188     c-11.7526245,0.5231934-23.237854,5.4892578-31.2108154,14.222168c-0.8001709,0.8764648-1.0452271,2.1213379-0.6258545,3.173584     c-3.1548462,24.9782715-6.3096313,49.956543-9.4644165,74.9346924c-0.914856,7.243103-1.8296509,14.4862671-2.7445068,21.7294312     c-0.144165,1.1415405,0.7128906,2.1625977,1.7424927,2.6350098c1.0335083,0.8088989,2.5073242,0.9805298,3.6677856-0.2669678     c5.3959351-5.8009033,12.9555054-9.2462769,20.7176514-9.5033569c4.0162964-0.1329956,7.7852173,0.472168,11.567688,2.0134888     c3.7646484,1.5341187,7.3651123,4.1027832,10.5394287,6.7573242c7.0792236,5.9200439,13.3828125,12.689209,21.4974365,17.2653198     c7.9280396,4.4708862,16.7915649,7.0875244,25.8546753,7.8060913c10.065979,0.7980347,20.1748657-1.0211792,29.3870239-5.1100464     c2.2792969,12.9682617,6.8500366,25.4570923,14.9526367,36.0524292     c9.1403198,11.9523926,21.713623,20.4543457,35.239563,26.755127     c19.8553467,9.2493286,41.4844971,11.9464111,63.119812,8.8685913c23.114563-3.288269,43.723938-13.4515381,63.671936-25.1046143     c21.2738647-12.4276123,42.6112671-24.6864014,64.4006958-36.196228     c10.8167725-5.7137451,21.6399536-11.6015625,32.8805542-16.4493408     c10.7932739-4.6549072,22.1749878-7.6343994,33.894043-8.6428833     c23.4400024-2.0172119,46.8171997,2.6828003,69.4107056,8.4953003c5.7561035,1.480896,11.4893188,3.0488892,17.2172852,4.6347046     c5.2434692,1.4517212,10.4208984,2.9206543,15.854187,3.463562c5.8304443,0.5826416,10.9699097-0.2548218,15.8145142-3.8529663     C623.0758667,479.2574463,624.4993286,460.1238403,624.0102539,445.5373535z M220.1170044,305.4799805     c16.7531128-24.4938965,38.2470703-45.7401123,63.9682007-60.7114258     c13.2769775-7.7280273,27.4830933-13.7185059,42.2368164-17.984375     c12.4293213-3.5938721,25.2588501-5.9819336,37.9963989-8.1829834c5.9898071-1.0350342,11.4969482-1.9682617,17.618103-1.8123779     c10.3200073,0.2626953,20.6866455,1.9432373,30.9239502,3.1898193     c18.6629028,2.2724609,36.9873047,5.9700928,54.7009888,12.3649902     c21.0938721,7.6151123,41.1622314,18.7557373,58.4029541,33.1992188     c-25.2301636-17.5456543-54.1295166-29.7919922-83.9295654-37.0430908     c-11.7559204-2.8605957-23.7405396-5.0344238-35.8323364-5.7536621     c-11.5083618-0.6848145-22.7520752,0.5362549-34.0991821,2.3435059     c-10.5083618,1.6738281-20.9921875,3.723877-31.2237549,6.6723633     c-9.5419312,2.7496338-18.7666626,6.6286621-27.7791138,10.7758789     c-37.7719116,17.3813477-66.6154175,48.7075195-87.8708496,83.8505859     c-11.2654419,18.6258545-20.2962036,38.6015625-27.0582886,59.2871094     c-0.0457764,0.1401367-0.088623,0.2810059-0.1342163,0.4211426c-0.2590942,0.2001953-0.5031738,0.4418945-0.7105713,0.7614746     c-0.0784912,0.1210938-0.5707397,0.8074951-0.5614624,0.8164062c-0.2364502,0.293457-0.4842529,0.5783691-0.7427368,0.8522949     c-0.2783813,0.2949219-0.5680542,0.5791016-0.8685913,0.8515625c-0.1671143,0.1514893-0.3395996,0.2958984-0.5106201,0.442749     c-0.0614014,0.0516357-0.1243286,0.1014404-0.1867676,0.1519775c-0.0185547,0.0134277-0.0422363,0.0307617-0.0782471,0.0574951     c-0.7050781,0.505249-1.4381104,0.9645996-2.2058716,1.3691406c-0.3273315,0.1724854-0.6607056,0.3321533-0.9957275,0.4890137     c-0.0684204,0.0321045-0.1061401,0.0501709-0.149292,0.0706787c-0.0186768,0.0073242-0.026001,0.0097656-0.0548096,0.0213623     c-0.305603,0.1234131-0.6142578,0.2391357-0.9252319,0.3483887c-3.6734009,1.289917-6.6851807,1.5535889-10.6355591,1.3280029     c0.0518799-0.1186523,0.1100464-0.2297363,0.1501465-0.3620605     C188.9376221,362.3525391,201.8112183,332.2437744,220.1170044,305.4799805z M181.1740112,485.576355     c-15.8158569,7.1176147-34.8093872,5.8626709-49.8220825-2.6660156     c-7.9611206-4.522644-14.0353394-11.3117676-21.0806885-17.0274048     c-3.6439819-2.9562988-7.4838257-5.5621948-11.8405151-7.3490601c-3.9012451-1.6001587-8.1618652-2.3734741-12.3748779-2.3762207     c-7.3391724-0.0048218-14.5976562,2.3446045-20.5647583,6.5599365     c2.9314575-23.2096558,5.862854-46.4192505,8.7942505-69.6289673c0.8764038-6.9384766,1.7526855-13.8770752,2.6290894-20.8156738     c6.5755005-6.6066895,15.5005493-10.6258545,24.8112793-11.2922363     c10.8893433-0.7791748,21.588623,2.7331543,30.7026978,8.550415     c8.9803467,5.7318115,16.4022217,13.4072266,24.1100464,20.6699219     c6.0459595,5.6968994,14.0039062,8.6300049,22.2268066,9.2452393c5.4578247,0.4083252,11.2711792-0.4086914,16.1068115-2.9377441     c-5.0536499,17.7866211-8.4589233,36.0023193-10.7854004,54.3513794     c-1.1480713,9.0551147-2.3560181,18.1293335-1.7955322,27.2736206c0.168457,2.3770142,0.4060059,4.7521362,0.7062988,7.1190186     C182.3971558,485.1994019,181.7662354,485.3098755,181.1740112,485.576355z M616.0165405,468.8023682     c-1.6500854,6.092041-4.5786133,12.449707-10.1211548,15.9156494c-1.1801758,0.7380371-2.4226074,1.3428955-3.7468262,1.7731323     c-0.2039795,0.0663452-1.3421021,0.3978271-1.2404785,0.4178467c-0.2105713,0.0239868-0.4245605,0.0332642-0.6342773,0.0480957     c-3.3618164,0.2374268-6.8097534-0.177063-10.1008911-0.8295898c-5.484375-1.0873413-10.8600464-2.8445435-16.2513428-4.3148193     c-5.7424316-1.565979-11.4971924-3.0891113-17.2800293-4.4995117     c-11.0812378-2.7026978-22.2712402-4.9701538-33.6011353-6.336792     c-22.6395264-2.730835-45.2406616-0.9312134-66.3757324,8.0048828     c-11.0112915,4.6556396-21.5877686,10.3568115-32.1608887,15.9171753     c-10.7119751,5.6333618-21.3502808,11.4068604-31.9110107,17.3189697     c-10.4859619,5.8702393-20.871521,11.9100342-31.2286377,18.0039062     c-9.8770142,5.8114624-19.8214722,11.5678711-30.2919312,16.2582397     c-19.7171021,8.8325195-41.6921997,13.1116943-63.2583008,10.7711792     c-17.4758301-1.8966064-34.5834961-8.8544922-48.8799438-19.0507812     c-11.8309937-8.4379272-20.8314819-20.1091919-25.6652222-33.8404541     c-2.9748535-8.4506836-4.5143433-17.3074951-5.1464233-26.2259521     c-0.5604858-9.144165,0.6489258-18.2185669,1.7955322-27.2736206     c1.3760986-10.8678589,3.1746826-21.6887817,5.4796143-32.3989868     c4.5865479-21.3118896,11.3021851-42.1584473,20.4386597-61.9631348     c8.5749512-18.5874023,19.2150269-36.3018799,31.7390137-52.5002441     c12.4025879-16.0412598,26.8347168-30.9848633,43.6762695-42.3950195     c15.5263062-10.519165,33.1464233-19.0170898,51.1782837-24.2177734     c9.8936157-2.8535156,20.0259399-4.8583984,30.1835938-6.5048828     c10.8981934-1.7666016,21.6940308-2.9361572,32.7542725-2.3497314     c21.1990356,1.1240234,42.411499,6.6019287,62.3433228,13.7435303     c17.8386841,6.3916016,34.9835815,14.7817383,50.8085327,25.2209473     c14.6495361,9.6639404,28.0625,21.1832275,39.6422729,34.3751221c0.1800537,0.2792969,0.3649292,0.5554199,0.543396,0.8358154     c0.2955933,0.4643555,0.6609497,0.7833252,1.0559082,1.0031738c0.4261475,0.4987793,0.8703003,0.9812012,1.2911377,1.4846191     c13.0031128,15.5541992,22.9812622,33.5571289,31.6726685,51.8012695     c9.2323608,19.3795166,16.8995361,39.699585,21.6447144,60.6638184     C618.0754395,434.03125,620.4782104,452.3296509,616.0165405,468.8023682z"/>
                <path d="M461.6937256,408.1773682c-1.2145996,1.2144775-0.9886475,2.8909912,0,4.1231689     c1.6077271,2.0040283,1.7667236,4.4973145,1.5437622,6.9458008c-0.1829834,2.0091553-0.7957153,4.1560059-2.0335693,5.7546387     c-0.461731,0.5964355-1.2746582,1.4665527-2.0356445,1.7485352c-0.5198975,0.192627-1.0732422,0.2521973-1.6176758,0.2889404     c-0.2745361,0.0184326-0.5484619,0.0179443-0.8233643,0.0093994c-0.0513306-0.001709-0.3773193-0.0456543-0.4456177-0.0501709     c-2.0465698-0.3934326-3.4503784-1.7601318-4.3903198-3.7977295c-1.0407715-2.2561035-4.8338623-1.6616211-5.3289185,0.6965332     c-0.3076782,1.4655762-0.6868896,2.6960449-1.5800781,3.880127c-0.0583496,0.0524902-0.3737183,0.4150391-0.3798828,0.4215088     c-0.2007446,0.2098389-0.4119873,0.4110107-0.6300049,0.6029053c-0.0419312,0.0368652-0.3638306,0.2839355-0.414978,0.3286133     c-0.1924438,0.1359863-0.3867798,0.2692871-0.585144,0.3963623c-2.2816772,1.4624023-4.6478271,2.0838623-7.1782227,1.4605713     c-5.5705566-1.3723145-7.9597778-7.5563965-6.4337158-12.6414795c1.0809937-3.6019287-4.5452271-5.1412354-5.6228638-1.5501709     c-2.4371948,8.1209717,1.980835,17.7142334,10.5064087,19.8144531c4.0115356,0.9882812,8.0803223,0.2167969,11.5527954-1.9736328     c1.8338013-1.1568604,3.296814-2.6063232,4.3968506-4.3074951c4.3911743,3.4337158,11.0323486,3.574585,15.0352783-1.0931396     c2.4017944-2.8006592,3.4621582-6.1787109,3.8214722-9.8027344c0.4146729-4.1831055-0.59375-7.9648438-3.2333374-11.2550049     C464.8308105,406.9482422,462.7215576,407.1495361,461.6937256,408.1773682z"/>
		</g>
            <path class="st5" d="M239.0263214,355.0326538c0.9834595-2.4809875,27.7401581-80.6034851,104.1564789-89.5012817    c76.4162903-8.8977661,69.0886841,21.9827881,0.5233765,81.6502991s-80.0800781,110.4372559-95.258667,125.6158447    C233.2689362,487.9760742,215.9967499,413.1299744,239.0263214,355.0326538z"/>
            <path class="st5" d="M428.8511353,258.6455688c5.8180542-2.5123596,40.244812-5.6682892,57.2496643,12.4702148    s-18.1385193,34.0097046-35.7101746,28.3414307C432.8189392,293.7889404,403.910675,269.4153137,428.8511353,258.6455688z"/>
	</g>
</g>
</svg>